# xmcd
#
# Track frame offsets:
#	150
#	7731
#	19229
#	27180
#	39536
#	47710
#	59375
#	71560
#	82728
#	91854
#	104421
#	116224
#	127320
#	138085
#	149406
#	158382
#	168570
#	176270
#	190078
#	199281
#	210357
#	220437
#
# Disc length: 3081 seconds
#
# Revision: 0
# Processed by: cddbd v1.5.2PL0 Copyright (c) Steve Scherf et al.
# Submitted via: EasyCDDAExtractor 16.0.4.1
#
DISCID=2e0c0716
DTITLE=Jim Reeves and Patsy Cline - Remembering
DYEAR=1900
DGENRE=Country
TTITLE0=Jim Reeves - Bimbo
TTITLE1=Patsy Cline - Walkin' after midnight
TTITLE2=Jim Reeves - Yonder comes a sucker
TTITLE3=Patsy Cline - A poor man's roses
TTITLE4=Jim Reeves - Waiting for a train
TTITLE5=Patsy Cline - I've loved and lost again
TTITLE6=Jim Reeves - Four walls
TTITLE7=Patsy Cline - Hidin' out
TTITLE8=Jim Reeves - Billy Bayou
TTITLE9=Patsy Cline - Fingerprints
TTITLE10=Jim Reeves - Mexican Joe
TTITLE11=Patsy Cline - Stop the world (and let me get off)
TTITLE12=Jim Reeves - I love you more
TTITLE13=Patsy Cline - Just out of reach
TTITLE14=Jim Reeves - I'd like to be
TTITLE15=Patsy Cline - Three cigarettes in an ashtray
TTITLE16=Jim Reeves - I know one
TTITLE17=Patsy Cline - A church, a courtroom, then goodbye
TTITLE18=Jim Reeves - Home
TTITLE19=Patsy Cline - I can't forget
TTITLE20=Jim Reeves - He'll have to go
TTITLE21=Patsy Cline - I cried all the way to the altar
EXTD=
EXTT0=
EXTT1=
EXTT2=
EXTT3=
EXTT4=
EXTT5=
EXTT6=
EXTT7=
EXTT8=
EXTT9=
EXTT10=
EXTT11=
EXTT12=
EXTT13=
EXTT14=
EXTT15=
EXTT16=
EXTT17=
EXTT18=
EXTT19=
EXTT20=
EXTT21=
PLAYORDER=
